# xmcd
#
# Track frame offsets:
#	150
#	34805
#	42481
#	62570
#	70278
#	83759
#	97149
#	122043
#	134415
#	151865
#
# Disc length: 2608 seconds
#
# Revision: 1
# Processed by: cddbd v1.5.2PL0 Copyright (c) Steve Scherf et al.
# Submitted via: audiograbber 1.83.01
#
DISCID=880a2e0a
DTITLE=Town and Country - Up above
DYEAR=2006
DGENRE=
TTITLE0=Sun trolley
TTITLE1=Fields and parks of easy access
TTITLE2=Phoney Fuckin' mountain
TTITLE3=Bee call
TTITLE4=Cloud seeding
TTITLE5=Blue lotus feet
TTITLE6=King of Portugal
TTITLE7=Belle Isle
TTITLE8=Almost at white glass and sun
TTITLE9=Up above
EXTD=
EXTT0=
EXTT1=
EXTT2=
EXTT3=
EXTT4=
EXTT5=
EXTT6=
EXTT7=
EXTT8=
EXTT9=
PLAYORDER=
